[Header]
FileType HTR
DataType HTRS
FileVersion 1
NumSegments 64
NumFrames 4
DataFrameRate 24
EulerRotationOrder ZYX
CalibrationUnits mm
RotationUnits Degrees
GlobalAxisofGravity Y
BoneLengthAxis Y
ScaleFactor 1.0
[SegmentNames&Hierarchy]
Hips	GLOBAL
Spine	Hips
Spine1	Spine
Spine2	Spine1
Neck	Spine2
Head	Neck
LeftEye	Head
RightEye	Head
LeftShoulder	Spine2
LeftArm	LeftShoulder
LeftForeArm	LeftArm
LeftHand	LeftForeArm
LeftHandThumb1	LeftHand
LeftHandThumb2	LeftHandThumb1
LeftHandThumb3	LeftHandThumb2
LeftHandThumb4	LeftHandThumb3
LeftHandIndex1	LeftHand
LeftHandIndex2	LeftHandIndex1
LeftHandIndex3	LeftHandIndex2
LeftHandIndex4	LeftHandIndex3
LeftHandMiddle1	LeftHand
LeftHandMiddle2	LeftHandMiddle1
LeftHandMiddle3	LeftHandMiddle2
LeftHandMiddle4	LeftHandMiddle3
LeftHandRing1	LeftHand
LeftHandRing2	LeftHandRing1
LeftHandRing3	LeftHandRing2
LeftHandRing4	LeftHandRing3
LeftHandPinky1	LeftHand
LeftHandPinky2	LeftHandPinky1
LeftHandPinky3	LeftHandPinky2
LeftHandPinky4	LeftHandPinky3
RightShoulder	Spine2
RightArm	RightShoulder
RightForeArm	RightArm
RightHand	RightForeArm
RightHandPinky1	RightHand
RightHandPinky2	RightHandPinky1
RightHandPinky3	RightHandPinky2
RightHandPinky4	RightHandPinky3
RightHandRing1	RightHand
RightHandRing2	RightHandRing1
RightHandRing3	RightHandRing2
RightHandRing4	RightHandRing3
RightHandMiddle1	RightHand
RightHandMiddle2	RightHandMiddle1
RightHandMiddle3	RightHandMiddle2
RightHandMiddle4	RightHandMiddle3
RightHandIndex1	RightHand
RightHandIndex2	RightHandIndex1
RightHandIndex3	RightHandIndex2
RightHandIndex4	RightHandIndex3
RightHandThumb1	RightHand
RightHandThumb2	RightHandThumb1
RightHandThumb3	RightHandThumb2
RightHandThumb4	RightHandThumb3
LeftUpLeg	Hips
LeftLeg	LeftUpLeg
LeftFoot	LeftLeg
LeftToeBase	LeftFoot
RightUpLeg	Hips
RightLeg	RightUpLeg
RightFoot	RightLeg
RightToeBase	RightFoot
[BasePosition]
Hips	0	0	0	0	0	0	1
Spine	0	0	0	0	0	0	1
Spine1	0	0	0	0	0	0	1
Spine2	0	0	0	0	0	0	1
Neck	0	0	0	0	0	0	1
Head	0	0	0	0	0	0	1
LeftEye	0	0	0	0	0	0	1
RightEye	0	0	0	0	0	0	1
LeftShoulder	0	0	0	0	0	0	1
LeftArm	0	0	0	0	0	0	1
LeftForeArm	0	0	0	0	0	0	1
LeftHand	0	0	0	0	0	0	1
LeftHandThumb1	0	0	0	0	0	0	1
LeftHandThumb2	0	0	0	0	0	0	1
LeftHandThumb3	0	0	0	0	0	0	1
LeftHandThumb4	0	0	0	0	0	0	1
LeftHandIndex1	0	0	0	0	0	0	1
LeftHandIndex2	0	0	0	0	0	0	1
LeftHandIndex3	0	0	0	0	0	0	1
LeftHandIndex4	0	0	0	0	0	0	1
LeftHandMiddle1	0	0	0	0	0	0	1
LeftHandMiddle2	0	0	0	0	0	0	1
LeftHandMiddle3	0	0	0	0	0	0	1
LeftHandMiddle4	0	0	0	0	0	0	1
LeftHandRing1	0	0	0	0	0	0	1
LeftHandRing2	0	0	0	0	0	0	1
LeftHandRing3	0	0	0	0	0	0	1
LeftHandRing4	0	0	0	0	0	0	1
LeftHandPinky1	0	0	0	0	0	0	1
LeftHandPinky2	0	0	0	0	0	0	1
LeftHandPinky3	0	0	0	0	0	0	1
LeftHandPinky4	0	0	0	0	0	0	1
RightShoulder	0	0	0	0	0	0	1
RightArm	0	0	0	0	0	0	1
RightForeArm	0	0	0	0	0	0	1
RightHand	0	0	0	0	0	0	1
RightHandPinky1	0	0	0	0	0	0	1
RightHandPinky2	0	0	0	0	0	0	1
RightHandPinky3	0	0	0	0	0	0	1
RightHandPinky4	0	0	0	0	0	0	1
RightHandRing1	0	0	0	0	0	0	1
RightHandRing2	0	0	0	0	0	0	1
RightHandRing3	0	0	0	0	0	0	1
RightHandRing4	0	0	0	0	0	0	1
RightHandMiddle1	0	0	0	0	0	0	1
RightHandMiddle2	0	0	0	0	0	0	1
RightHandMiddle3	0	0	0	0	0	0	1
RightHandMiddle4	0	0	0	0	0	0	1
RightHandIndex1	0	0	0	0	0	0	1
RightHandIndex2	0	0	0	0	0	0	1
RightHandIndex3	0	0	0	0	0	0	1
RightHandIndex4	0	0	0	0	0	0	1
RightHandThumb1	0	0	0	0	0	0	1
RightHandThumb2	0	0	0	0	0	0	1
RightHandThumb3	0	0	0	0	0	0	1
RightHandThumb4	0	0	0	0	0	0	1
LeftUpLeg	0	0	0	0	0	0	1
LeftLeg	0	0	0	0	0	0	1
LeftFoot	0	0	0	0	0	0	1
LeftToeBase	0	0	0	0	0	0	1
RightUpLeg	0	0	0	0	0	0	1
RightLeg	0	0	0	0	0	0	1
RightFoot	0	0	0	0	0	0	1
RightToeBase	0	0	0	0	0	0	1
[Hips]
242	887.3404541	1018.672852	111.3212662	1.835420966	9.914352417	4.940807819	1.0
243	866.2828369	1025.770508	110.7684937	4.493000507	6.342665195	2.204956055	1.0
244	846.4301147	1013.898926	111.9970245	6.911806107	3.307812214	0.7739340663	1.0
245	819.229187	999.1118774	111.2071075	6.917144775	0.2543634176	1.913730741	1.0
[Spine]
242	0	101.8159943	1.315000057	6.676319122	-1.124002934	7.992131233	1.0
243	0	101.8159943	1.315000057	5.308948517	-2.114881277	11.40921307	1.0
244	0	101.8159943	1.315000057	3.910163641	-4.184166908	13.87729073	1.0
245	0	101.8159943	1.315000057	3.765493393	-5.349083424	13.2417078	1.0
[Spine1]
242	0	100.8349991	-10.00800037	3.411649466	-0.1208984479	1.249713063	1.0
243	0	100.8349991	-10.00800037	2.541707754	-0.3890592158	0.9656620622	1.0
244	0	100.8349991	-10.00800037	1.601601601	-0.7310046554	1.257195354	1.0
245	0	100.8349991	-10.00800037	1.620480537	-0.8566825986	1.696083665	1.0
[Spine2]
242	0	91	-13.73399925	3.394982338	-0.07492875308	1.248037219	1.0
243	0	91	-13.73399925	2.516092777	-0.3993671536	0.9663788676	1.0
244	0	91	-13.73399925	1.56727314	-0.7543777227	1.256978273	1.0
245	0	91	-13.73399925	1.588068485	-0.8797647357	1.692471266	1.0
[Neck]
242	0	166.7169952	-25.16200066	-0.7693692446	3.190289259	7.741414547	1.0
243	0	166.7169952	-25.16200066	-1.515170336	3.856234312	9.969239235	1.0
244	0	166.7169952	-25.16200066	-1.550317645	4.803385735	11.17660904	1.0
245	0	166.7169952	-25.16200066	-1.285332918	5.674368382	11.02357864	1.0
[Head]
242	0	96.17900085	16.84999847	-29.99382782	30.13459015	-11.89445114	1.0
243	0	96.17900085	16.84999847	-29.40051651	34.7682991	-13.60556889	1.0
244	0	96.17900085	16.84999847	-29.99695206	39.49457932	-18.08779526	1.0
245	0	96.17900085	16.84999847	-32.74100494	42.07197952	-23.77012062	1.0
[LeftEye]
242	30.6760006	64.09500122	92.83599854	0	0	0	1.0
243	30.6760006	64.09500122	92.83599854	0	0	0	1.0
244	30.6760006	64.09500122	92.83599854	0	0	0	1.0
245	30.6760006	64.09500122	92.83599854	0	0	0	1.0
[RightEye]
242	-30.6760006	64.09500122	92.83499908	0	0	0	1.0
243	-30.6760006	64.09500122	92.83499908	0	0	0	1.0
244	-30.6760006	64.09500122	92.83499908	0	0	0	1.0
245	-30.6760006	64.09500122	92.83499908	0	0	0	1.0
[LeftShoulder]
242	45.70400238	109.4599991	-26.28000069	3.822334051	-19.54666328	-4.570814133	1.0
243	45.70400238	109.4599991	-26.28000069	3.6435287	-17.4243679	-3.410904169	1.0
244	45.70400238	109.4599991	-26.28000069	3.629052877	-12.48181152	-1.276294351	1.0
245	45.70400238	109.4599991	-26.28000069	3.642445087	-7.848072529	3.529256821	1.0
[LeftArm]
242	105.923996	-5.24600029	-22.32099915	32.57406616	35.35177612	-53.65194321	1.0
243	105.923996	-5.24600029	-22.32099915	26.06895447	35.41633224	-60.22863007	1.0
244	105.923996	-5.24600029	-22.32099915	25.26595116	32.37706757	-65.23728943	1.0
245	105.923996	-5.24600029	-22.32099915	27.43774033	27.40411568	-70.61894989	1.0
[LeftForeArm]
242	278.414978	-0.0009999999311	0	-1.534376861e-05	-83.63069916	-0.0001820104226	1.0
243	278.414978	-0.0009999999311	0	2.686999323e-05	-79.46624756	-0.0002213183034	1.0
244	278.414978	-0.0009999999311	0	-2.458279232e-05	-74.19499207	-0.0001951654267	1.0
245	278.414978	-0.0009999999311	0	-1.10928504e-05	-69.43120575	-0.0001859638287	1.0
[LeftHand]
242	283.2879944	0	0	46.91246414	-39.99904633	-37.78355408	1.0
243	283.2879944	0	0	51.85333252	-39.43707657	-47.56637955	1.0
244	283.2879944	0	0	54.34738922	-40.2055397	-53.15372086	1.0
245	283.2879944	0	0	56.13193512	-41.04786682	-54.77842331	1.0
[LeftHandThumb1]
242	24.6609993	-15.75	26.8239994	-1.441460013	-8.319261551	8.653967857	1.0
243	24.6609993	-15.75	26.8239994	-1.441467166	-8.319263458	8.653969765	1.0
244	24.6609993	-15.75	26.8239994	-1.44146347	-8.319263458	8.653962135	1.0
245	24.6609993	-15.75	26.8239994	-1.441490531	-8.319263458	8.653959274	1.0
[LeftHandThumb2]
242	32.29800034	-18.64699936	18.64699936	-0.9986088276	48.03616333	-30.10180855	1.0
243	32.29800034	-18.64699936	18.64699936	-0.9985972047	48.03616714	-30.1018219	1.0
244	32.29800034	-18.64699936	18.64699936	-0.9986211658	48.03615952	-30.10181808	1.0
245	32.29800034	-18.64699936	18.64699936	-0.9986051917	48.03616714	-30.10182762	1.0
[LeftHandThumb3]
242	26.52600098	-15.31499958	15.31499958	7.522153378	50.02409363	24.38756371	1.0
243	26.52600098	-15.31499958	15.31499958	7.522149563	50.02410126	24.38756561	1.0
244	26.52600098	-15.31499958	15.31499958	7.522166252	50.02407074	24.38754654	1.0
245	26.52600098	-15.31499958	15.31499958	7.522173882	50.024086	24.38755226	1.0
[LeftHandThumb4]
242	19.54599953	-11.28499985	11.28499985	0	0	0	1.0
243	19.54599953	-11.28499985	11.28499985	0	0	0	1.0
244	19.54599953	-11.28499985	11.28499985	0	0	0	1.0
245	19.54599953	-11.28499985	11.28499985	0	0	0	1.0
[LeftHandIndex1]
242	91.09299469	-5.170999527	22.60099792	-1.706936598	9.272183418	-79.12527466	1.0
243	91.09299469	-5.170999527	22.60099792	-1.70691824	9.272157669	-79.12529755	1.0
244	91.09299469	-5.170999527	22.60099792	-1.706944704	9.272171974	-79.12528992	1.0
245	91.09299469	-5.170999527	22.60099792	-1.706932902	9.272172928	-79.12528992	1.0
[LeftHandIndex2]
242	36.76399994	0	0	-5.084227562	5.778067112	-82.67962646	1.0
243	36.76399994	0	0	-5.084242821	5.778046131	-82.67962646	1.0
244	36.76399994	0	0	-5.08423233	5.778055191	-82.67963409	1.0
245	36.76399994	0	0	-5.084218979	5.778058052	-82.67964935	1.0
[LeftHandIndex3]
242	28.83100128	0	0	-6.449672699	5.791756153	-96.16448975	1.0
243	28.83100128	0	0	-6.449669838	5.791772842	-96.16448212	1.0
244	28.83100128	0	0	-6.449674606	5.791769981	-96.16448975	1.0
245	28.83100128	0	0	-6.449668884	5.791748047	-96.16447449	1.0
[LeftHandIndex4]
242	23.92700005	0	0	0	0	0	1.0
243	23.92700005	0	0	0	0	0	1.0
244	23.92700005	0	0	0	0	0	1.0
245	23.92700005	0	0	0	0	0	1.0
[LeftHandMiddle1]
242	95.33399963	0	0	-6.494762897	5.273257732	-74.30394745	1.0
243	95.33399963	0	0	-6.494755268	5.273249626	-74.30395508	1.0
244	95.33399963	0	0	-6.494761944	5.27325058	-74.30394745	1.0
245	95.33399963	0	0	-6.494767189	5.273237228	-74.30393982	1.0
[LeftHandMiddle2]
242	36.98199844	0	0	-7.583493233	5.554392338	-107.5965958	1.0
243	36.98199844	0	0	-7.583474636	5.554390907	-107.5965958	1.0
244	36.98199844	0	0	-7.583496094	5.554389	-107.5966034	1.0
245	36.98199844	0	0	-7.583512783	5.554394722	-107.5965958	1.0
[LeftHandMiddle3]
242	29.50900078	0	0	-4.044073582	5.547127247	-72.16720581	1.0
243	29.50900078	0	0	-4.044075012	5.547121048	-72.16722107	1.0
244	29.50900078	0	0	-4.044071198	5.547129631	-72.16721344	1.0
245	29.50900078	0	0	-4.044071674	5.547132492	-72.16721344	1.0
[LeftHandMiddle4]
242	28.3390007	0	0	0	0	0	1.0
243	28.3390007	0	0	0	0	0	1.0
244	28.3390007	0	0	0	0	0	1.0
245	28.3390007	0	0	0	0	0	1.0
[LeftHandRing1]
242	91.04499817	-0.4390000105	-18.65100098	-7.093584061	2.507965803	-79.76667786	1.0
243	91.04499817	-0.4390000105	-18.65100098	-7.093588829	2.507938623	-79.76668549	1.0
244	91.04499817	-0.4390000105	-18.65100098	-7.093607903	2.507935524	-79.76667786	1.0
245	91.04499817	-0.4390000105	-18.65100098	-7.09359026	2.507936478	-79.76668549	1.0
[LeftHandRing2]
242	31.54000092	0	0	-6.249150276	5.809817791	-94.18068695	1.0
243	31.54000092	0	0	-6.249145031	5.809810162	-94.18068695	1.0
244	31.54000092	0	0	-6.249163628	5.80982542	-94.18069458	1.0
245	31.54000092	0	0	-6.249151707	5.809825897	-94.18069458	1.0
[LeftHandRing3]
242	29.37700081	0	0	-2.898624182	5.038873672	-59.79807281	1.0
243	29.37700081	0	0	-2.898610115	5.03888607	-59.798069	1.0
244	29.37700081	0	0	-2.898598433	5.038883686	-59.79808426	1.0
245	29.37700081	0	0	-2.898621321	5.03886652	-59.798069	1.0
[LeftHandRing4]
242	26.47500038	0	0	0	0	0	1.0
243	26.47500038	0	0	0	0	0	1.0
244	26.47500038	0	0	0	0	0	1.0
245	26.47500038	0	0	0	0	0	1.0
[LeftHandPinky1]
242	80.77799988	-4.887000084	-38.06099701	-15.74282074	5.236329079	-84.96305084	1.0
243	80.77799988	-4.887000084	-38.06099701	-15.74281406	5.23630476	-84.96304321	1.0
244	80.77799988	-4.887000084	-38.06099701	-15.74281693	5.236315727	-84.9630661	1.0
245	80.77799988	-4.887000084	-38.06099701	-15.74280834	5.236320019	-84.96305847	1.0
[LeftHandPinky2]
242	36	0	0	-2.465517759	4.761461735	-54.73119736	1.0
243	36	0	0	-2.465520859	4.761492252	-54.73119354	1.0
244	36	0	0	-2.465510368	4.761458397	-54.73120499	1.0
245	36	0	0	-2.465525389	4.761477947	-54.73119736	1.0
[LeftHandPinky3]
242	21.14200211	0	0	-4.929657459	5.756207466	-81.14134216	1.0
243	21.14200211	0	0	-4.929649353	5.756178379	-81.14135742	1.0
244	21.14200211	0	0	-4.929648876	5.756193638	-81.14134216	1.0
245	21.14200211	0	0	-4.929644108	5.756196022	-81.1413269	1.0
[LeftHandPinky4]
242	19.75699997	0	0	0	0	0	1.0
243	19.75699997	0	0	0	0	0	1.0
244	19.75699997	0	0	0	0	0	1.0
245	19.75699997	0	0	0	0	0	1.0
[RightShoulder]
242	-45.70000076	109.4620056	-26.28000069	2.341491699	3.174057007	-2.563068628	1.0
243	-45.70000076	109.4620056	-26.28000069	2.78644371	0.5613400936	1.964889765	1.0
244	-45.70000076	109.4620056	-26.28000069	2.907435417	-0.6117017269	2.915593147	1.0
245	-45.70000076	109.4620056	-26.28000069	2.558484077	0.3867472708	-1.409219265	1.0
[RightArm]
242	-105.9280014	-5.248000145	-22.32099915	59.24033356	-20.41501808	39.55867386	1.0
243	-105.9280014	-5.248000145	-22.32099915	65.29210663	-14.94242382	28.85804176	1.0
244	-105.9280014	-5.248000145	-22.32099915	68.18235779	-10.24201965	23.25233078	1.0
245	-105.9280014	-5.248000145	-22.32099915	68.02440643	-9.841715813	28.05217743	1.0
[RightForeArm]
242	-278.414978	0	0	-9.155269072e-05	93.8536377	-0.0001220702907	1.0
243	-278.414978	0	0	1.525931293e-05	100.2690964	1.525937296e-05	1.0
244	-278.414978	0	0	4.577636719e-05	104.7052231	3.051757813e-05	1.0
245	-278.414978	0	0	4.577654181e-05	103.248848	3.051798194e-05	1.0
[RightHand]
242	-283.2879944	0	0.0009999999311	29.04525948	28.10055351	18.86413002	1.0
243	-283.2879944	0	0.0009999999311	21.97190285	23.00661278	14.12164497	1.0
244	-283.2879944	0	0.0009999999311	17.05445099	18.49844742	13.1151371	1.0
245	-283.2879944	0	0.0009999999311	17.37504005	18.38536453	13.95706081	1.0
[RightHandPinky1]
242	-80.76699829	-4.885000229	-38.06000137	-14.517169	-4.04832077	84.21438599	1.0
243	-80.76699829	-4.885000229	-38.06000137	-14.51717091	-4.048336029	84.21438599	1.0
244	-80.76699829	-4.885000229	-38.06000137	-14.51717663	-4.048324108	84.2143631	1.0
245	-80.76699829	-4.885000229	-38.06000137	-14.51717091	-4.048335552	84.21438599	1.0
[RightHandPinky2]
242	-36	0	0.0009999999311	-1.960810065	-3.784807444	54.78260422	1.0
243	-36	0	0.0009999999311	-1.960835695	-3.784815073	54.78262329	1.0
244	-36	0	0.0009999999311	-1.960833788	-3.784827948	54.78264236	1.0
245	-36	0	0.0009999999311	-1.960835457	-3.784824371	54.78261948	1.0
[RightHandPinky3]
242	-21.14200211	0	0	-3.919522762	-4.575732231	81.15794373	1.0
243	-21.14200211	0	0	-3.919514894	-4.575727463	81.15797424	1.0
244	-21.14200211	0	0	-3.919509649	-4.575716019	81.15796661	1.0
245	-21.14200211	0	0	-3.919516087	-4.575726986	81.15795898	1.0
[RightHandPinky4]
242	-19.75699997	0	0	0	0	0	1.0
243	-19.75699997	0	0	0	0	0	1.0
244	-19.75699997	0	0	0	0	0	1.0
245	-19.75699997	0	0	0	0	0	1.0
[RightHandRing1]
242	-91.03599548	-0.4390000105	-18.65100098	-5.975871086	-1.320505261	79.02267456	1.0
243	-91.03599548	-0.4390000105	-18.65100098	-5.975875854	-1.320495009	79.02267456	1.0
244	-91.03599548	-0.4390000105	-18.65100098	-5.975866795	-1.320509672	79.02267456	1.0
245	-91.03599548	-0.4390000105	-18.65100098	-5.975874901	-1.320492744	79.0226593	1.0
[RightHandRing2]
242	-31.54000092	0	0	-4.967088699	-4.6182971	94.17273712	1.0
243	-31.54000092	0	0	-4.967107296	-4.618308067	94.17275238	1.0
244	-31.54000092	0	0	-4.96709013	-4.618301392	94.17275238	1.0
245	-31.54000092	0	0	-4.96709156	-4.618296623	94.17274475	1.0
[RightHandRing3]
242	-29.37700081	0	0	-2.306355238	-4.00609827	59.84556198	1.0
243	-29.37700081	0	0	-2.306343794	-4.006091118	59.84556961	1.0
244	-29.37700081	0	0	-2.306349516	-4.006093025	59.84556961	1.0
245	-29.37700081	0	0	-2.306351662	-4.006089687	59.8455658	1.0
[RightHandRing4]
242	-26.47500038	0	0	0	0	0	1.0
243	-26.47500038	0	0	0	0	0	1.0
244	-26.47500038	0	0	0	0	0	1.0
245	-26.47500038	0	0	0	0	0	1.0
[RightHandMiddle1]
242	-95.32500458	0	0	-5.490193844	-4.098504543	73.57289124	1.0
243	-95.32500458	0	0	-5.490179062	-4.098514557	73.57290649	1.0
244	-95.32500458	0	0	-5.490205765	-4.098496914	73.57289124	1.0
245	-95.32500458	0	0	-5.490180492	-4.098514557	73.57289124	1.0
[RightHandMiddle2]
242	-36.98199844	0	0	-6.026564121	-4.415486813	107.5651169	1.0
243	-36.98199844	0	0	-6.026578426	-4.415491581	107.5651169	1.0
244	-36.98199844	0	0	-6.026589394	-4.415503025	107.5651245	1.0
245	-36.98199844	0	0	-6.026549816	-4.415487766	107.5651093	1.0
[RightHandMiddle3]
242	-29.50900078	0	0	-3.216337442	-4.41174221	72.19917297	1.0
243	-29.50900078	0	0	-3.216325045	-4.411741734	72.19915771	1.0
244	-29.50900078	0	0	-3.216326237	-4.411742687	72.1991806	1.0
245	-29.50900078	0	0	-3.21633029	-4.41173172	72.1991806	1.0
[RightHandMiddle4]
242	-28.3390007	0	0.0009999999311	0	0	0	1.0
243	-28.3390007	0	0.0009999999311	0	0	0	1.0
244	-28.3390007	0	0.0009999999311	0	0	0	1.0
245	-28.3390007	0	0.0009999999311	0	0	0	1.0
[RightHandIndex1]
242	-91.08300018	-5.167999744	22.60099792	-0.6033729315	-8.085644722	78.39245605	1.0
243	-91.08300018	-5.167999744	22.60099792	-0.6033778191	-8.085646629	78.39244843	1.0
244	-91.08300018	-5.167999744	22.60099792	-0.6033712626	-8.085670471	78.39246368	1.0
245	-91.08300018	-5.167999744	22.60099792	-0.6033772826	-8.085658073	78.3924408	1.0
[RightHandIndex2]
242	-36.76399994	0	0	-4.042239666	-4.593088627	82.69345093	1.0
243	-36.76399994	0	0	-4.042257309	-4.593076706	82.69342804	1.0
244	-36.76399994	0	0	-4.042230606	-4.593061924	82.6934433	1.0
245	-36.76399994	0	0	-4.042251587	-4.593075752	82.69345093	1.0
[RightHandIndex3]
242	-28.83100128	0	0	-5.126288891	-4.603960991	96.15283966	1.0
243	-28.83100128	0	0	-5.126290798	-4.60395956	96.15283966	1.0
244	-28.83100128	0	0	-5.126279831	-4.603953838	96.15283966	1.0
245	-28.83100128	0	0	-5.12628603	-4.603959084	96.1528244	1.0
[RightHandIndex4]
242	-23.92700005	0	0	0	0	0	1.0
243	-23.92700005	0	0	0	0	0	1.0
244	-23.92700005	0	0	0	0	0	1.0
245	-23.92700005	0	0	0	0	0	1.0
[RightHandThumb1]
242	-24.64799881	-15.72700024	26.82600021	-2.388246059	10.16858387	-8.287028313	1.0
243	-24.64799881	-15.72700024	26.82600021	-2.38823843	10.16858482	-8.287029266	1.0
244	-24.64799881	-15.72700024	26.82600021	-2.388227463	10.16859055	-8.287031174	1.0
245	-24.64799881	-15.72700024	26.82600021	-2.388250113	10.16858196	-8.28703022	1.0
[RightHandThumb2]
242	-32.29800034	-18.64699936	18.64699936	-2.059258223	-49.3998642	30.22302246	1.0
243	-32.29800034	-18.64699936	18.64699936	-2.05926919	-49.39985275	30.22302437	1.0
244	-32.29800034	-18.64699936	18.64699936	-2.05931139	-49.39984131	30.22304344	1.0
245	-32.29800034	-18.64699936	18.64699936	-2.059281349	-49.39987946	30.22304535	1.0
[RightHandThumb3]
242	-26.52600098	-15.31399918	15.31399918	13.49722195	-55.14929581	-27.72499084	1.0
243	-26.52600098	-15.31399918	15.31399918	13.49726295	-55.14929581	-27.72501945	1.0
244	-26.52600098	-15.31399918	15.31399918	13.49728203	-55.14928436	-27.72501945	1.0
245	-26.52600098	-15.31399918	15.31399918	13.49725533	-55.14930344	-27.72501373	1.0
[RightHandThumb4]
242	-19.54599953	-11.28499985	11.28499985	0	0	0	1.0
243	-19.54599953	-11.28499985	11.28499985	0	0	0	1.0
244	-19.54599953	-11.28499985	11.28499985	0	0	0	1.0
245	-19.54599953	-11.28499985	11.28499985	0	0	0	1.0
[LeftUpLeg]
242	82.07800293	-67.51699829	-15.99599934	-28.96508598	15.29710484	13.96799183	1.0
243	82.07800293	-67.51699829	-15.99599934	-28.23859978	22.11931229	7.123015404	1.0
244	82.07800293	-67.51699829	-15.99599934	-28.44791031	20.60084915	1.662374854	1.0
245	82.07800293	-67.51699829	-15.99599934	-25.74211693	15.32514286	0.4776596725	1.0
[LeftLeg]
242	0	-443.7049866	2.845999956	44.61744308	0.9414336085	-1.765921116	1.0
243	0	-443.7049866	2.845999956	39.3335495	0.5951550007	-1.938242435	1.0
244	0	-443.7049866	2.845999956	34.60255051	3.636180162	0.7012447715	1.0
245	0	-443.7049866	2.845999956	30.96437073	7.529013157	3.430265665	1.0
[LeftFoot]
242	0	-444.2789917	-29.8219986	25.65065575	-6.603194714	-24.33686447	1.0
243	0	-444.2789917	-29.8219986	21.106884	-8.176134109	-20.72432709	1.0
244	0	-444.2789917	-29.8219986	3.068931341	-3.605020046	-5.905185699	1.0
245	0	-444.2789917	-29.8219986	-9.833249092	9.148655891	-2.210264921	1.0
[LeftToeBase]
242	0	-87.28699493	107.1060028	-8.296843529	-4.456002898e-06	-6.15156705e-06	1.0
243	0	-87.28699493	107.1060028	-18.00024223	1.643322468	6.577919483	1.0
244	0	-87.28699493	107.1060028	-12.54240227	0.3001586497	1.450984597	1.0
245	0	-87.28699493	107.1060028	-4.719285011	4.844537216e-06	-3.381004035e-06	1.0
[RightUpLeg]
242	-82.07800293	-67.51699829	-15.99599934	-9.492222786	-19.33127594	4.478645802	1.0
243	-82.07800293	-67.51699829	-15.99599934	-17.81949997	-17.29890633	0.2321466506	1.0
244	-82.07800293	-67.51699829	-15.99599934	-25.10516548	-13.69853497	-4.173998356	1.0
245	-82.07800293	-67.51699829	-15.99599934	-27.71208572	-9.016094208	-11.07437706	1.0
[RightLeg]
242	0	-443.7049866	2.861999989	27.49185944	-0.8493382931	1.895438433	1.0
243	0	-443.7049866	2.861999989	40.39153671	3.52327776	7.592923641	1.0
244	0	-443.7049866	2.861999989	53.36459732	2.162343979	9.112238884	1.0
245	0	-443.7049866	2.861999989	59.79634857	-1.643537998	1.938357353	1.0
[RightFoot]
242	0	-444.2770081	-29.83799934	-10.54112625	-8.966649055	-0.1010031626	1.0
243	0	-444.2770081	-29.83799934	0.01766386628	-3.257151127	26.22642517	1.0
244	0	-444.2770081	-29.83799934	-4.504786015	-0.788177371	27.56365776	1.0
245	0	-444.2770081	-29.83799934	-11.08982754	-5.773228645	22.79158783	1.0
[RightToeBase]
242	0	-87.28699493	107.1060028	-17.86843109	-7.206303053e-06	6.793370488e-08	1.0
243	0	-87.28699493	107.1060028	-23.1544075	-2.938104868	-9.813708305	1.0
244	0	-87.28699493	107.1060028	-9.110992432	1.976731937e-06	-1.600478208e-05	1.0
245	0	-87.28699493	107.1060028	-2.836883307	7.985989328e-07	-1.824300625e-06	1.0
[EndOfFile]
